<?xml version="1.0" encoding="UTF-8" standalone="no"?>
<!DOCTYPE svg PUBLIC "-//W3C//DTD SVG 1.1//EN"
 "http://www.w3.org/Graphics/SVG/1.1/DTD/svg11.dtd">
<!-- Generated by graphviz version 2.40.1 (20161225.0304)
 -->
<!-- Title: %3 Pages: 1 -->
<svg width="705pt" height="317pt"
 viewBox="0.00 0.00 705.50 317.00" xmlns="http://www.w3.org/2000/svg" xmlns:xlink="http://www.w3.org/1999/xlink">
<g id="graph0" class="graph" transform="scale(1 1) rotate(0) translate(4 313)">
<title>%3</title>
<polygon fill="#ffffff" stroke="transparent" points="-4,4 -4,-313 701.4983,-313 701.4983,4 -4,4"/>
<!-- _D7example6child1FiZi -->
<g id="node1" class="node">
<title>_D7example6child1FiZi</title>
<polygon fill="#32cd32" stroke="#000000" points="252.4983,-69 73.4983,-69 73.4983,0 252.4983,0 252.4983,-69"/>
<text text-anchor="middle" x="162.9983" y="-53.8" font-family="Times,serif" font-size="14.00" fill="#000000">int example.child1(int)</text>
<text text-anchor="middle" x="162.9983" y="-22.8" font-family="Times,serif" font-size="14.00" fill="#000000">0.12%(0.12%)</text>
<text text-anchor="middle" x="162.9983" y="-7.8" font-family="Times,serif" font-size="14.00" fill="#000000">0.000015s(0.000015s)</text>
</g>
<!-- _D7example3fibFmZm -->
<g id="node2" class="node">
<title>_D7example3fibFmZm</title>
<polygon fill="#000080" stroke="#000000" points="233.9983,-189 39.9983,-189 39.9983,-120 233.9983,-120 233.9983,-189"/>
<text text-anchor="middle" x="136.9983" y="-173.8" font-family="Times,serif" font-size="14.00" fill="#000000">ulong example.fib(ulong)</text>
<text text-anchor="middle" x="136.9983" y="-142.8" font-family="Times,serif" font-size="14.00" fill="#000000">90.25%(90.25%)</text>
<text text-anchor="middle" x="136.9983" y="-127.8" font-family="Times,serif" font-size="14.00" fill="#000000">0.011525s(0.011525s)</text>
</g>
<!-- _D7example3fibFmZm&#45;&gt;_D7example3fibFmZm -->
<g id="edge1" class="edge">
<title>_D7example3fibFmZm&#45;&gt;_D7example3fibFmZm</title>
<path fill="none" stroke="#000000" d="M234.3196,-163.964C245.0623,-162.1664 251.9983,-159.0117 251.9983,-154.5 251.9983,-151.6097 249.1517,-149.2763 244.2814,-147.4998"/>
<polygon fill="#000000" stroke="#000000" points="244.8675,-144.0394 234.3196,-145.036 243.1867,-150.8346 244.8675,-144.0394"/>
<text text-anchor="middle" x="269.9983" y="-150.8" font-family="Times,serif" font-size="14.00" fill="#000000">266x</text>
</g>
<!-- _D7example3sumFiiZi -->
<g id="node3" class="node">
<title>_D7example3sumFiiZi</title>
<polygon fill="#32cd32" stroke="#000000" points="499.9983,-189 305.9983,-189 305.9983,-120 499.9983,-120 499.9983,-189"/>
<text text-anchor="middle" x="402.9983" y="-173.8" font-family="Times,serif" font-size="14.00" fill="#000000">int example.sum(int, int)</text>
<text text-anchor="middle" x="402.9983" y="-142.8" font-family="Times,serif" font-size="14.00" fill="#000000">0.03%(0.03%)</text>
<text text-anchor="middle" x="402.9983" y="-127.8" font-family="Times,serif" font-size="14.00" fill="#000000">0.000003s(0.000003s)</text>
</g>
<!-- _D7example6child2FiZi -->
<g id="node4" class="node">
<title>_D7example6child2FiZi</title>
<polygon fill="#32cd32" stroke="#000000" points="697.4983,-189 518.4983,-189 518.4983,-120 697.4983,-120 697.4983,-189"/>
<text text-anchor="middle" x="607.9983" y="-173.8" font-family="Times,serif" font-size="14.00" fill="#000000">int example.child2(int)</text>
<text text-anchor="middle" x="607.9983" y="-142.8" font-family="Times,serif" font-size="14.00" fill="#000000">0.91%(0.84%)</text>
<text text-anchor="middle" x="607.9983" y="-127.8" font-family="Times,serif" font-size="14.00" fill="#000000">0.000117s(0.000107s)</text>
</g>
<!-- _D7example6child2FiZi&#45;&gt;_D7example6child1FiZi -->
<g id="edge2" class="edge">
<title>_D7example6child2FiZi&#45;&gt;_D7example6child1FiZi</title>
<path fill="none" stroke="#000000" d="M518.2733,-122.8237C515.1501,-121.8515 512.0516,-120.9071 508.9983,-120 426.7419,-95.562 332.0685,-72.5103 262.57,-56.5145"/>
<polygon fill="#000000" stroke="#000000" points="263.0325,-53.0298 252.5032,-54.2063 261.468,-59.8528 263.0325,-53.0298"/>
<text text-anchor="middle" x="451.9983" y="-90.8" font-family="Times,serif" font-size="14.00" fill="#000000">2x</text>
</g>
<!-- _Dmain -->
<g id="node5" class="node">
<title>_Dmain</title>
<polygon fill="#ff0000" stroke="#000000" points="424.4983,-309 247.4983,-309 247.4983,-240 424.4983,-240 424.4983,-309"/>
<text text-anchor="middle" x="335.9983" y="-293.8" font-family="Times,serif" font-size="14.00" fill="#000000">void main()</text>
<text text-anchor="middle" x="335.9983" y="-262.8" font-family="Times,serif" font-size="14.00" fill="#000000">100.00%(8.77%)</text>
<text text-anchor="middle" x="335.9983" y="-247.8" font-family="Times,serif" font-size="14.00" fill="#000000">0.012770s(0.001120s)</text>
</g>
<!-- _Dmain&#45;&gt;_D7example6child1FiZi -->
<g id="edge3" class="edge">
<title>_Dmain&#45;&gt;_D7example6child1FiZi</title>
<path fill="none" stroke="#000000" d="M247.3368,-263.2033C161.8919,-250.2808 41.4812,-226.0035 12.9983,-189 -5.7072,-164.6988 -2.4085,-146.5156 12.9983,-120 24.9892,-99.3631 44.0324,-83.2923 64.5807,-70.9436"/>
<polygon fill="#000000" stroke="#000000" points="66.5112,-73.8718 73.4631,-65.8767 63.0428,-67.7915 66.5112,-73.8718"/>
<text text-anchor="middle" x="21.9983" y="-150.8" font-family="Times,serif" font-size="14.00" fill="#000000">1x</text>
</g>
<!-- _Dmain&#45;&gt;_D7example3fibFmZm -->
<g id="edge4" class="edge">
<title>_Dmain&#45;&gt;_D7example3fibFmZm</title>
<path fill="none" stroke="#000000" d="M278.7062,-239.952C255.0835,-225.7072 227.5645,-209.1128 203.0948,-194.3572"/>
<polygon fill="#000000" stroke="#000000" points="204.6013,-191.1786 194.2304,-189.0118 200.9865,-197.1731 204.6013,-191.1786"/>
<text text-anchor="middle" x="262.4983" y="-210.8" font-family="Times,serif" font-size="14.00" fill="#000000">10x</text>
</g>
<!-- _Dmain&#45;&gt;_D7example3sumFiiZi -->
<g id="edge5" class="edge">
<title>_Dmain&#45;&gt;_D7example3sumFiiZi</title>
<path fill="none" stroke="#000000" d="M355.3774,-239.791C362.6692,-226.7312 371.0534,-211.7146 378.7349,-197.9568"/>
<polygon fill="#000000" stroke="#000000" points="381.8436,-199.5685 383.6626,-189.131 375.7317,-196.156 381.8436,-199.5685"/>
<text text-anchor="middle" x="386.4983" y="-210.8" font-family="Times,serif" font-size="14.00" fill="#000000">10x</text>
</g>
<!-- _Dmain&#45;&gt;_D7example6child2FiZi -->
<g id="edge6" class="edge">
<title>_Dmain&#45;&gt;_D7example6child2FiZi</title>
<path fill="none" stroke="#000000" d="M414.307,-239.952C447.445,-225.3323 486.1925,-208.2378 520.287,-193.1962"/>
<polygon fill="#000000" stroke="#000000" points="522.035,-196.2505 529.7714,-189.0118 519.2095,-189.8461 522.035,-196.2505"/>
<text text-anchor="middle" x="496.9983" y="-210.8" font-family="Times,serif" font-size="14.00" fill="#000000">1x</text>
</g>
</g>
</svg>
