<?xml version="1.0" encoding="UTF-8" standalone="no"?>
<!DOCTYPE svg PUBLIC "-//W3C//DTD SVG 1.1//EN"
 "http://www.w3.org/Graphics/SVG/1.1/DTD/svg11.dtd">
<!-- Generated by graphviz version 2.40.1 (20161225.0304)
 -->
<!-- Title: %3 Pages: 1 -->
<svg width="624pt" height="272pt"
 viewBox="0.00 0.00 623.57 272.00" xmlns="http://www.w3.org/2000/svg" xmlns:xlink="http://www.w3.org/1999/xlink">
<g id="graph0" class="graph" transform="scale(1 1) rotate(0) translate(4 268)">
<title>%3</title>
<polygon fill="#ffffff" stroke="transparent" points="-4,4 -4,-268 619.5685,-268 619.5685,4 -4,4"/>
<!-- _D7example6child1FiZi -->
<g id="node1" class="node">
<title>_D7example6child1FiZi</title>
<polygon fill="#32cd32" stroke="#000000" points="225.5685,-54 56.5685,-54 56.5685,0 225.5685,0 225.5685,-54"/>
<text text-anchor="middle" x="141.0685" y="-38.8" font-family="Times,serif" font-size="14.00" fill="#000000">int example.child1(..)</text>
<text text-anchor="middle" x="141.0685" y="-7.8" font-family="Times,serif" font-size="14.00" fill="#000000">0.12%(0.12%)</text>
</g>
<!-- _D7example3fibFmZm -->
<g id="node2" class="node">
<title>_D7example3fibFmZm</title>
<polygon fill="#000080" stroke="#000000" points="201.0685,-159 37.0685,-159 37.0685,-105 201.0685,-105 201.0685,-159"/>
<text text-anchor="middle" x="119.0685" y="-143.8" font-family="Times,serif" font-size="14.00" fill="#000000">ulong example.fib(..)</text>
<text text-anchor="middle" x="119.0685" y="-112.8" font-family="Times,serif" font-size="14.00" fill="#000000">90.25%(90.25%)</text>
</g>
<!-- _D7example3fibFmZm&#45;&gt;_D7example3fibFmZm -->
<g id="edge1" class="edge">
<title>_D7example3fibFmZm&#45;&gt;_D7example3fibFmZm</title>
<path fill="none" stroke="#000000" d="M201.453,-140.5449C212.0606,-139.0632 219.0685,-136.2148 219.0685,-132 219.0685,-129.2999 216.1924,-127.1606 211.3364,-125.5821"/>
<polygon fill="#000000" stroke="#000000" points="211.9656,-122.1374 201.453,-123.4551 210.4928,-128.9807 211.9656,-122.1374"/>
<text text-anchor="middle" x="237.0685" y="-128.3" font-family="Times,serif" font-size="14.00" fill="#000000">266x</text>
</g>
<!-- _D7example3sumFiiZi -->
<g id="node3" class="node">
<title>_D7example3sumFiiZi</title>
<polygon fill="#32cd32" stroke="#000000" points="428.5685,-159 273.5685,-159 273.5685,-105 428.5685,-105 428.5685,-159"/>
<text text-anchor="middle" x="351.0685" y="-143.8" font-family="Times,serif" font-size="14.00" fill="#000000">int example.sum(..)</text>
<text text-anchor="middle" x="351.0685" y="-112.8" font-family="Times,serif" font-size="14.00" fill="#000000">0.03%(0.03%)</text>
</g>
<!-- _D7example6child2FiZi -->
<g id="node4" class="node">
<title>_D7example6child2FiZi</title>
<polygon fill="#32cd32" stroke="#000000" points="615.5685,-159 446.5685,-159 446.5685,-105 615.5685,-105 615.5685,-159"/>
<text text-anchor="middle" x="531.0685" y="-143.8" font-family="Times,serif" font-size="14.00" fill="#000000">int example.child2(..)</text>
<text text-anchor="middle" x="531.0685" y="-112.8" font-family="Times,serif" font-size="14.00" fill="#000000">0.91%(0.84%)</text>
</g>
<!-- _D7example6child2FiZi&#45;&gt;_D7example6child1FiZi -->
<g id="edge2" class="edge">
<title>_D7example6child2FiZi&#45;&gt;_D7example6child1FiZi</title>
<path fill="none" stroke="#000000" d="M446.4476,-107.3325C443.6223,-106.5409 440.8233,-105.7615 438.0685,-105 370.5506,-86.3364 294.0982,-66.2827 235.6706,-51.1829"/>
<polygon fill="#000000" stroke="#000000" points="236.274,-47.7239 225.7165,-48.6132 234.5242,-54.5017 236.274,-47.7239"/>
<text text-anchor="middle" x="373.0685" y="-75.8" font-family="Times,serif" font-size="14.00" fill="#000000">2x</text>
</g>
<!-- _Dmain -->
<g id="node5" class="node">
<title>_Dmain</title>
<polygon fill="#ff0000" stroke="#000000" points="360.5685,-264 225.5685,-264 225.5685,-210 360.5685,-210 360.5685,-264"/>
<text text-anchor="middle" x="293.0685" y="-248.8" font-family="Times,serif" font-size="14.00" fill="#000000">void main()</text>
<text text-anchor="middle" x="293.0685" y="-217.8" font-family="Times,serif" font-size="14.00" fill="#000000">100.00%(8.77%)</text>
</g>
<!-- _Dmain&#45;&gt;_D7example6child1FiZi -->
<g id="edge3" class="edge">
<title>_Dmain&#45;&gt;_D7example6child1FiZi</title>
<path fill="none" stroke="#000000" d="M225.268,-227.8112C150.1186,-216.0736 36.0465,-193.1068 10.0685,-159 -4.4737,-139.9075 -1.7915,-125.8648 10.0685,-105 21.0712,-85.6433 38.9869,-70.5858 58.0848,-59.0921"/>
<polygon fill="#000000" stroke="#000000" points="59.9644,-62.0494 66.922,-54.0593 56.5003,-55.9667 59.9644,-62.0494"/>
<text text-anchor="middle" x="19.0685" y="-128.3" font-family="Times,serif" font-size="14.00" fill="#000000">1x</text>
</g>
<!-- _Dmain&#45;&gt;_D7example3fibFmZm -->
<g id="edge4" class="edge">
<title>_Dmain&#45;&gt;_D7example3fibFmZm</title>
<path fill="none" stroke="#000000" d="M248.2591,-209.9599C225.2114,-196.0518 196.9513,-178.9982 172.7454,-164.3912"/>
<polygon fill="#000000" stroke="#000000" points="174.3982,-161.3008 164.028,-159.1308 170.7816,-167.2941 174.3982,-161.3008"/>
<text text-anchor="middle" x="230.5685" y="-180.8" font-family="Times,serif" font-size="14.00" fill="#000000">10x</text>
</g>
<!-- _Dmain&#45;&gt;_D7example3sumFiiZi -->
<g id="edge5" class="edge">
<title>_Dmain&#45;&gt;_D7example3sumFiiZi</title>
<path fill="none" stroke="#000000" d="M308.0049,-209.9599C314.9863,-197.3211 323.4025,-182.085 330.9355,-168.4476"/>
<polygon fill="#000000" stroke="#000000" points="334.2095,-169.7591 335.981,-159.3134 328.0821,-166.3744 334.2095,-169.7591"/>
<text text-anchor="middle" x="338.5685" y="-180.8" font-family="Times,serif" font-size="14.00" fill="#000000">10x</text>
</g>
<!-- _Dmain&#45;&gt;_D7example6child2FiZi -->
<g id="edge6" class="edge">
<title>_Dmain&#45;&gt;_D7example6child2FiZi</title>
<path fill="none" stroke="#000000" d="M354.3594,-209.9599C386.7141,-195.6858 426.5785,-178.0985 460.2504,-163.2432"/>
<polygon fill="#000000" stroke="#000000" points="461.8356,-166.3694 469.5721,-159.1308 459.0101,-159.965 461.8356,-166.3694"/>
<text text-anchor="middle" x="435.0685" y="-180.8" font-family="Times,serif" font-size="14.00" fill="#000000">1x</text>
</g>
</g>
</svg>
